<svg width="338" height="143" viewBox="0 0 338 143" fill="none" xmlns="http://www.w3.org/2000/svg">
<path d="M22.9377 55.2435C12.9442 31.3135 33.0886 5.64282 58.6921 9.76318L167.991 27.3527C173.487 28.2372 179.093 28.1976 184.576 27.2356L327.738 2.11833C333.093 1.17873 338 5.29951 338 10.7368V10.7368C338 11.5746 337.88 12.408 337.643 13.2116L314.074 93.1416C307.804 114.404 288.283 129 266.115 129H51.9988C27.8538 129 11.9483 103.839 22.3057 82.0284V82.0284C26.3078 73.6009 26.533 63.8525 22.9377 55.2435V55.2435Z" fill="#FD840E"/>
<path d="M26.2288 30V25.68H27.7888C27.7088 25.68 31.5488 25.76 39.3088 25.92C45.9488 26 53.0688 26 60.6688 25.92L73.7488 25.68H75.4288V30V34.32H67.3888H59.2288V66.84V99.36H64.3888C68.0688 99.36 70.2688 99.28 70.9888 99.12C74.2688 98.72 77.2288 97.64 79.8688 95.88C84.7488 92.52 87.8288 86.92 89.1088 79.08C89.7488 75.56 90.0688 73.28 90.0688 72.24C90.0688 72.16 91.5088 72.12 94.3888 72.12H98.7088V72.72C98.5488 73.12 97.9488 78.88 96.9088 90C95.7088 101.44 95.0688 107.24 94.9888 107.4V108H60.5488H26.2288V103.68V99.36H32.7088H39.1888V66.84V34.32H32.7088H26.2288V30ZM284.853 90C285.186 89.9333 285.819 89.9 286.753 89.9C288.819 89.9667 290.653 90.6667 292.253 92C293.119 92.6667 293.819 93.5 294.353 94.5C296.086 97.5 296.086 100.5 294.353 103.5C293.819 104.433 293.119 105.233 292.253 105.9C291.453 106.633 290.319 107.233 288.853 107.7C288.319 107.833 287.553 107.9 286.553 107.9C285.486 107.9 284.686 107.833 284.153 107.7C282.286 107.167 280.753 106.2 279.553 104.8C277.153 101.8 276.719 98.6 278.253 95.2C278.586 94.4667 279.019 93.7667 279.553 93.1C280.219 92.3667 281.086 91.6667 282.153 91C283.019 90.6 283.919 90.2667 284.853 90Z" fill="white"/>
<path d="M127.335 108H112.435V53.4H127.335V108ZM141.035 32.4C140.101 33.3333 138.868 34.4667 137.335 35.8C135.801 37.1333 134.135 38.5333 132.335 40C130.601 41.4667 128.868 42.8667 127.135 44.2C125.468 45.4667 124.001 46.5333 122.735 47.4H112.835V46.1C113.901 44.8333 115.135 43.3667 116.535 41.7C118.001 39.9667 119.435 38.2 120.835 36.4C122.235 34.5333 123.401 32.8667 124.335 31.4H141.035V32.4ZM139.004 43V39.4H152.804H166.704L167.104 39.6C167.304 39.6667 173.204 46.8333 184.804 61.1C196.604 75.6333 202.404 82.8 202.204 82.6L202.504 82.9V64.8V46.6H197.104H191.704V43V39.4H192.704L200.004 39.6C204.27 39.6667 208.537 39.6667 212.804 39.6C217.604 39.4667 220.037 39.4 220.104 39.4H221.104V43V46.6H215.704H210.304V76.6C210.304 96.5333 210.237 106.633 210.104 106.9C209.97 107.3 209.704 107.6 209.304 107.8C209.037 107.933 208.07 108 206.404 108C204.737 108 203.77 107.933 203.504 107.8C203.37 107.733 195.737 98.4333 180.604 79.9C165.337 60.9 157.77 51.5333 157.904 51.8L157.604 51.5V76.1V100.8H163.004H168.404V104.4V108H167.404C167.47 108 165.037 107.933 160.104 107.8C155.837 107.733 151.57 107.733 147.304 107.8C142.37 107.933 139.937 108 140.004 108H139.004V104.4V100.8H144.404H149.804V73.7V46.6H144.404H139.004V43ZM244.243 62.8H250.543C252.809 63 254.709 63.4 256.243 64L256.943 64.2L258.743 63.5L260.543 62.7H261.643C262.376 62.7 262.843 62.7667 263.043 62.9C263.443 63.1667 263.676 63.8333 263.743 64.9C263.743 65.5 263.743 66.9333 263.743 69.2C263.743 73 263.509 75.0667 263.043 75.4C262.776 75.5333 261.809 75.6 260.143 75.6C258.476 75.6 257.509 75.5333 257.243 75.4C256.776 75.0667 256.543 74.6333 256.543 74.1C256.543 72.0333 255.576 70.5333 253.643 69.6C252.043 68.8 249.876 68.4 247.143 68.4C244.543 68.4 242.509 68.7 241.043 69.3C239.309 70.0333 238.443 71.2667 238.443 73C238.443 73.2667 238.509 73.5667 238.643 73.9C238.843 74.7667 239.576 75.5 240.843 76.1C241.776 76.6333 244.143 77.2667 247.943 78C251.409 78.6 253.843 79.1 255.243 79.5C259.243 80.9 262.276 83.1 264.343 86.1C265.276 87.6333 265.943 89.1333 266.343 90.6C266.476 91.2667 266.543 92.2667 266.543 93.6C266.543 95 266.476 96.0333 266.343 96.7C265.476 101.367 262.943 104.667 258.743 106.6C256.943 107.467 254.709 108.067 252.043 108.4C251.576 108.467 250.243 108.5 248.043 108.5C245.643 108.5 243.509 108.3 241.643 107.9C240.443 107.567 239.276 107.133 238.143 106.6L237.043 106.1L234.643 107.3L232.143 108.6H231.143C230.343 108.6 229.843 108.533 229.643 108.4C229.243 108.2 229.009 107.6 228.943 106.6C228.943 105.933 228.943 104.033 228.943 100.9C228.943 96.3 229.143 93.8333 229.543 93.5C229.876 93.3 230.843 93.2 232.443 93.2C234.176 93.2 235.176 93.2667 235.443 93.4C235.643 93.5333 235.976 94.1333 236.443 95.2C237.709 98.8667 240.176 101.133 243.843 102C246.843 102.8 249.909 102.767 253.043 101.9C255.376 101.1 256.709 99.7333 257.043 97.8C257.443 95.4 256.209 93.6 253.343 92.4C252.276 91.9333 250.209 91.4333 247.143 90.9C244.076 90.3667 242.376 90.0333 242.043 89.9C235.776 88.4333 231.676 85.4333 229.743 80.9C229.543 80.3667 229.376 79.8333 229.243 79.3C229.109 78.7 229.043 77.7667 229.043 76.5C229.043 75.2333 229.076 74.4 229.143 74C230.009 69.8 232.309 66.7667 236.043 64.9C238.309 63.7 241.043 63 244.243 62.8Z" fill="black"/>
</svg>
